# xmcd
#
# Track frame offsets:
#	150
#	27480
#	45816
#	63496
#	84798
#	108052
#	132412
#	149211
#	171748
#	186731
#	211840
#	236432
#	261756
#	288242
#	308534
#	324765
#
# Disc length: 4450
#
# Revision: 1
# Processed by: cddbd v1.5.1PL0 Copyright (c) Steve Scherf et al.
# Submitted via: dBpowerAMP V4.0
# Normalized: r0:DSETVAR1
#
DISCID=e2116010
DTITLE=Various Artist - The Rebirth Of Cool Phive
DYEAR=1995
DGENRE=Blues
TTITLE0=Jhelisa - Friendly Pressure
TTITLE1=Coldcut - Eine Kleine Hed Musick
TTITLE2=Massive Attack - Karmakoma (Portishead Experience)
TTITLE3=Leena Conquest (and Hip Hop Finger) - Boundaries
TTITLE4=Ben Harper - Whipping Boy (Remix)
TTITLE5=Kruder and Dorfmeister - Deep Shit Parts 1 and 2
TTITLE6=Tricky - Hell Is Round The Corner
TTITLE7=Freakpower - Turn On, Tune In, Find Joy
TTITLE8=Portishead - Revenge Of The Number
TTITLE9=Bomb The Bass featuring Justin Warfield - Bug Powder Dust (LA Funk Mob Remix)
TTITLE10=UFO - United Future Airlines (Astral Hi-Jack Mix)
TTITLE11=D*Note - Iniquity worker
TTITLE12=Method Man - Release Yo'Delf (Prodigy Mix)
TTITLE13=Paul Weller - Kosmos (Lynch Mob Bonus Beats)
TTITLE14=MC Solaar - Nouveau Western
TTITLE15=Beastie Boys - Get It Together
EXTD=Cool CD, like all the previous were and the\nfollowing'll be :)
EXTT0=
EXTT1=
EXTT2=
EXTT3=
EXTT4=
EXTT5=
EXTT6=
EXTT7=
EXTT8=
EXTT9=
EXTT10=
EXTT11=
EXTT12=
EXTT13=
EXTT14=
EXTT15=
PLAYORDER=
